<svg xmlns="http://www.w3.org/2000/svg" viewBox="0 0 320 540" role="img" aria-label="Diagrama do veículo (vista de cima)">
  <!-- Vista de cima. Cada .zone é clicável: data-zone identifica o local da avaria. -->

  <!-- Rodas -->
  <g fill="#3a3a3a">
    <rect x="52" y="120" width="16" height="52" rx="8"/>
    <rect x="252" y="120" width="16" height="52" rx="8"/>
    <rect x="52" y="368" width="16" height="52" rx="8"/>
    <rect x="252" y="368" width="16" height="52" rx="8"/>
  </g>

  <!-- Carroceria (contorno) -->
  <path d="M110 22
           C 80 26, 68 48, 66 90
           L 64 200 L 64 340 L 66 450
           C 68 496, 84 514, 116 518
           L 204 518
           C 236 514, 252 496, 254 450
           L 256 340 L 256 200 L 254 90
           C 252 48, 240 26, 210 22
           Z"
        fill="#1f1f1f" stroke="#4a4a4a" stroke-width="2"/>

    <!-- Para-brisa e vidro traseiro (referência visual) -->
  <path d="M92 160 C 120 148, 200 148, 228 160 L 218 208 C 190 200, 130 200, 102 208 Z" fill="#141414" stroke="#3a3a3a" stroke-width="1.5"/>
  <path d="M100 348 C 130 356, 190 356, 220 348 L 226 392 C 196 402, 124 402, 94 392 Z" fill="#141414" stroke="#3a3a3a" stroke-width="1.5"/>

  <!-- Zonas clicáveis -->
  <!-- Frente (para-choque) -->
  <path class="zone" data-zone="front" d="M110 22 C 80 26, 68 48, 66 88 L 254 88 C 252 48, 240 26, 210 22 Z"/>
  <!-- Capô -->
  <rect class="zone" data-zone="hood" x="66" y="90" width="188" height="62" rx="8"/>
  <!-- Para-brisa -->
  <rect class="zone" data-zone="windshield" x="88" y="154" width="144" height="58" rx="8"/>
  <!-- Teto -->
  <rect class="zone" data-zone="roof" x="88" y="216" width="144" height="126" rx="10"/>
  <!-- Vidro traseiro -->
  <rect class="zone" data-zone="rear-window" x="88" y="346" width="144" height="52" rx="8"/>
  <!-- Porta-malas -->
  <rect class="zone" data-zone="trunk" x="66" y="402" width="188" height="50" rx="8"/>
  <!-- Traseira (para-choque) -->
  <path class="zone" data-zone="rear" d="M66 454 C 68 496, 84 514, 116 518 L 204 518 C 236 514, 252 496, 254 454 Z"/>
  <!-- Lateral dianteira esquerda -->
  <rect class="zone" data-zone="front-left" x="64" y="154" width="22" height="116" rx="6"/>
  <!-- Lateral traseira esquerda -->
  <rect class="zone" data-zone="rear-left" x="64" y="272" width="22" height="126" rx="6"/>
  <!-- Lateral dianteira direita -->
  <rect class="zone" data-zone="front-right" x="234" y="154" width="22" height="116" rx="6"/>
  <!-- Lateral traseira direita -->
  <rect class="zone" data-zone="rear-right" x="234" y="272" width="22" height="126" rx="6"/>

  <!-- Rodas (círculos clicáveis, centralizados em cima do desenho da roda) -->
  <circle class="zone" data-zone="wheel-front-left" cx="60" cy="146" r="18"/>
  <circle class="zone" data-zone="wheel-front-right" cx="260" cy="146" r="18"/>
  <circle class="zone" data-zone="wheel-rear-left" cx="60" cy="394" r="18"/>
  <circle class="zone" data-zone="wheel-rear-right" cx="260" cy="394" r="18"/>

  <!-- Setas de orientação -->
  <g fill="#6a6a6a" font-family="sans-serif" font-size="13" text-anchor="middle">
    <text x="160" y="12">FRENTE</text>
    <text x="160" y="536">TRASEIRA</text>
  </g>
</svg>
